<?xml version="1.0" encoding="UTF-8"?>
<svg width="227px" height="47px" viewBox="0 0 227 47" version="1.1" xmlns="http://www.w3.org/2000/svg" xmlns:xlink="http://www.w3.org/1999/xlink">
    <title>Shopify Logo Light</title>
    <g id="Shopify-Logo-Light" stroke="none" stroke-width="1" fill="none" fill-rule="evenodd">
        <g id="logo-light" fill-rule="nonzero">
            <path d="M50.82,35 L50.82,21.112 L53.984,21.112 L54.264,23.464 C54.6933,22.6427 55.3093,21.9893 56.112,21.504 C56.9333,21.0187 57.8947,20.776 58.996,20.776 C60.7133,20.776 62.048,21.3173 63,22.4 C63.952,23.4827 64.428,25.0693 64.428,27.16 L64.428,35 L60.844,35 L60.844,27.496 C60.844,26.3013 60.6013,25.3867 60.116,24.752 C59.6307,24.1173 58.8747,23.8 57.848,23.8 C56.84,23.8 56.0093,24.1547 55.356,24.864 C54.7213,25.5733 54.404,26.5627 54.404,27.832 L54.404,35 L50.82,35 Z M81.2392,21.112 L81.2392,35 L78.0752,35 L77.7952,32.648 C77.3658,33.4693 76.7405,34.1227 75.9192,34.608 C75.1165,35.0933 74.1645,35.336 73.0632,35.336 C71.3458,35.336 70.0112,34.7947 69.0592,33.712 C68.1072,32.6293 67.6312,31.0427 67.6312,28.952 L67.6312,21.112 L71.2152,21.112 L71.2152,28.616 C71.2152,29.8107 71.4578,30.7253 71.9432,31.36 C72.4285,31.9947 73.1845,32.312 74.2112,32.312 C75.2192,32.312 76.0405,31.9573 76.6752,31.248 C77.3285,30.5387 77.6552,29.5493 77.6552,28.28 L77.6552,21.112 L81.2392,21.112 Z M83.5743,35 L88.6143,28.056 L83.5743,21.112 L87.4103,21.112 L90.9383,26.04 L94.4383,21.112 L98.3023,21.112 L93.2343,28.056 L98.3023,35 L94.4383,35 L90.9383,30.072 L87.4103,35 L83.5743,35 Z M106.7736,35 C105.3176,35 104.151,34.6453 103.2736,33.936 C102.3963,33.2267 101.9576,31.9667 101.9576,30.156 L101.9576,24.108 L99.5776,24.108 L99.5776,21.112 L101.9576,21.112 L102.3776,17.388 L105.5416,17.388 L105.5416,21.112 L109.2936,21.112 L109.2936,24.108 L105.5416,24.108 L105.5416,30.184 C105.5416,30.856 105.6816,31.3227 105.9616,31.584 C106.2603,31.8267 106.7643,31.948 107.4736,31.948 L109.2096,31.948 L109.2096,35 L106.7736,35 Z M111.195,38.108 L118.195,13.244 L121.695,13.244 L114.667,38.108 L111.195,38.108 Z" id="Shape" fill="#003E27"></path>
            <g id="Group">
                <path d="M35.9162198,9.06203164 C35.8887399,8.81189118 35.6689008,8.70071765 35.5040214,8.67292427 C35.3391421,8.64513088 32.041555,8.6173375 32.041555,8.6173375 C32.041555,8.6173375 29.2660858,5.89358593 28.9912869,5.61565209 C28.7164879,5.33771826 28.19437,5.42109841 27.9745308,5.47668517 C27.9745308,5.47668517 27.4524129,5.64344548 26.5730563,5.92137931 C26.4356568,5.44889179 26.2158177,4.86523074 25.9135389,4.28156969 C24.9242627,2.36382623 23.4953083,1.36326443 21.7365952,1.36326443 C21.6266756,1.36326443 21.4892761,1.36326443 21.3793566,1.39105781 C21.3243968,1.33547105 21.269437,1.27988428 21.2144772,1.19650413 C20.4450402,0.362702626 19.483244,-0.0264047419 18.3290885,0.0013886415 C16.0757373,0.0569754083 13.849866,1.69678503 12.0087131,4.64288367 C10.7171582,6.69959405 9.75536193,9.2843787 9.480563,11.2855023 C6.89745308,12.0915104 5.08378016,12.6473781 5.05630027,12.6751715 C3.76474531,13.0920722 3.70978552,13.1198656 3.54490617,14.3705679 C3.4075067,15.2877495 0,41.997191 0,41.997191 L28.6065684,47 L41,43.8871411 C41,43.8871411 35.9436997,9.2843787 35.9162198,9.06203164 Z M25.1441019,6.36607344 C24.4845845,6.56062713 23.7426273,6.81076758 22.9182306,7.06090803 C22.8907507,5.92137931 22.7533512,4.30936307 22.2312332,2.9196939 C23.9624665,3.2532145 24.7868633,5.19875134 25.1441019,6.36607344 Z M21.4343164,7.53339555 C19.9229223,8.00588307 18.3016086,8.50616397 16.652815,9.03423825 C17.1199732,7.25546171 17.9993298,5.47668517 19.0710456,4.30936307 C19.483244,3.86466894 20.0328418,3.39218142 20.6923592,3.11424758 C21.3243968,4.4205366 21.4343164,6.28269329 21.4343164,7.53339555 L21.4343164,7.53339555 Z M18.3565684,1.53002473 C18.8786863,1.53002473 19.3183646,1.64119826 19.7030831,1.89133871 C19.0985255,2.19706593 18.4939678,2.66955345 17.94437,3.28100788 C16.5154155,4.83743736 15.4162198,7.22766833 14.9765416,9.56231254 C13.6025469,9.97921329 12.2835121,10.396114 11.0469169,10.7852214 C11.8713137,7.1164948 14.8941019,1.64119826 18.3565684,1.53002473 L18.3565684,1.53002473 Z" id="Shape" fill="#95BF47"></path>
                <path d="M34.6784922,9.1812709 C34.518847,9.15384615 31.3259424,9.1264214 31.3259424,9.1264214 C31.3259424,9.1264214 28.6385809,6.43879599 28.3725055,6.16454849 C28.2660754,6.0548495 28.1330377,6 28,6 L28,47 L40,43.9284281 C40,43.9284281 35.1042129,9.81204013 35.0776053,9.56521739 C35.0243902,9.31839465 34.8381375,9.20869565 34.6784922,9.1812709 Z" id="Path" fill="#5E8E3E"></path>
                <path d="M21,14.4596667 L19.5836576,19.8577943 C19.5836576,19.8577943 18.0038911,19.1141747 16.0972763,19.251882 C13.3190661,19.4171308 13.2918288,21.1797847 13.3190661,21.6479897 C13.4824903,24.0716388 19.7470817,24.5949267 20.1011673,30.2409275 C20.3735409,34.7026452 17.7587549,37.7322066 14,37.9800798 C9.47859922,38.2554945 7,35.5839722 7,35.5839722 L7.95330739,31.4802935 C7.95330739,31.4802935 10.459144,33.3806548 12.4474708,33.2704889 C13.7548638,33.1878645 14.2178988,32.1137473 14.1634241,31.3425862 C13.9727626,28.2028589 8.85214008,28.3681077 8.52529183,23.2178533 C8.25291829,18.8663015 11.0856031,14.4596667 17.3229572,14.0465447 C19.7743191,13.826213 21,14.4596667 21,14.4596667 L21,14.4596667 Z" id="Path" fill="#FFFFFF"></path>
            </g>
            <path d="M131.616,35.364 C132.437333,35.364 133.244667,35.2846667 134.038,35.126 C134.831333,34.9673333 135.536,34.692 136.152,34.3 C136.768,33.908 137.267333,33.39 137.65,32.746 C138.032667,32.102 138.224,31.304 138.224,30.352 C138.224,29.68 138.093333,29.1153333 137.832,28.658 C137.570667,28.2006667 137.225333,27.818 136.796,27.51 C136.366667,27.202 135.876667,26.9546667 135.326,26.768 C134.775333,26.5813333 134.210667,26.4226667 133.632,26.292 C133.072,26.1613333 132.521333,26.04 131.98,25.928 C131.438667,25.816 130.958,25.69 130.538,25.55 C130.118,25.41 129.777333,25.228 129.516,25.004 C129.254667,24.78 129.124,24.4906667 129.124,24.136 C129.124,23.8373333 129.198667,23.5993333 129.348,23.422 C129.497333,23.2446667 129.679333,23.1093333 129.894,23.016 C130.108667,22.9226667 130.346667,22.862 130.608,22.834 C130.869333,22.806 131.112,22.792 131.336,22.792 C132.045333,22.792 132.661333,22.9273333 133.184,23.198 C133.706667,23.4686667 133.996,23.9866667 134.052,24.752 L137.832,24.752 C137.757333,23.856 137.528667,23.114 137.146,22.526 C136.763333,21.938 136.282667,21.4666667 135.704,21.112 C135.125333,20.7573333 134.467333,20.5053333 133.73,20.356 C132.992667,20.2066667 132.232,20.132 131.448,20.132 C130.664,20.132 129.898667,20.202 129.152,20.342 C128.405333,20.482 127.733333,20.7246667 127.136,21.07 C126.538667,21.4153333 126.058,21.8866667 125.694,22.484 C125.33,23.0813333 125.148,23.8466667 125.148,24.78 C125.148,25.4146667 125.278667,25.9513333 125.54,26.39 C125.801333,26.8286667 126.146667,27.1926667 126.576,27.482 C127.005333,27.7713333 127.495333,28.0046667 128.046,28.182 C128.596667,28.3593333 129.161333,28.5133333 129.74,28.644 C131.158667,28.9426667 132.264667,29.2413333 133.058,29.54 C133.851333,29.8386667 134.248,30.2866667 134.248,30.884 C134.248,31.2386667 134.164,31.5326667 133.996,31.766 C133.828,31.9993333 133.618,32.186 133.366,32.326 C133.114,32.466 132.834,32.5686667 132.526,32.634 C132.218,32.6993333 131.924,32.732 131.644,32.732 C131.252,32.732 130.874,32.6853333 130.51,32.592 C130.146,32.4986667 129.824,32.354 129.544,32.158 C129.264,31.962 129.035333,31.71 128.858,31.402 C128.680667,31.094 128.592,30.7253333 128.592,30.296 L124.812,30.296 C124.849333,31.2666667 125.068667,32.074 125.47,32.718 C125.871333,33.362 126.384667,33.88 127.01,34.272 C127.635333,34.664 128.349333,34.944 129.152,35.112 C129.954667,35.28 130.776,35.364 131.616,35.364 Z M145.301778,35 L145.301778,27.412 C145.301778,25.9373333 145.544444,24.878 146.029778,24.234 C146.515111,23.59 147.299111,23.268 148.381778,23.268 C149.333778,23.268 149.996444,23.562 150.369778,24.15 C150.743111,24.738 150.929778,25.6293333 150.929778,26.824 L150.929778,35 L154.905778,35 L154.905778,26.096 C154.905778,25.2 154.826444,24.3833333 154.667778,23.646 C154.509111,22.9086667 154.233778,22.2833333 153.841778,21.77 C153.449778,21.2566667 152.913111,20.8553333 152.231778,20.566 C151.550444,20.2766667 150.677778,20.132 149.613778,20.132 C148.867111,20.132 148.101778,20.3233333 147.317778,20.706 C146.533778,21.0886667 145.889778,21.7 145.385778,22.54 L145.301778,22.54 L145.301778,15.008 L141.325778,15.008 L141.325778,35 L145.301778,35 Z M165.735556,35.364 C166.874222,35.364 167.905556,35.1866667 168.829556,34.832 C169.753556,34.4773333 170.542222,33.9686667 171.195556,33.306 C171.848889,32.6433333 172.352889,31.8453333 172.707556,30.912 C173.062222,29.9786667 173.239556,28.9333333 173.239556,27.776 C173.239556,26.6186667 173.062222,25.5686667 172.707556,24.626 C172.352889,23.6833333 171.848889,22.8806667 171.195556,22.218 C170.542222,21.5553333 169.753556,21.042 168.829556,20.678 C167.905556,20.314 166.874222,20.132 165.735556,20.132 C164.596889,20.132 163.570222,20.314 162.655556,20.678 C161.740889,21.042 160.956889,21.5553333 160.303556,22.218 C159.650222,22.8806667 159.146222,23.6833333 158.791556,24.626 C158.436889,25.5686667 158.259556,26.6186667 158.259556,27.776 C158.259556,28.9333333 158.436889,29.9786667 158.791556,30.912 C159.146222,31.8453333 159.650222,32.6433333 160.303556,33.306 C160.956889,33.9686667 161.740889,34.4773333 162.655556,34.832 C163.570222,35.1866667 164.596889,35.364 165.735556,35.364 Z M165.735556,32.396 C165.063556,32.396 164.503556,32.2653333 164.055556,32.004 C163.607556,31.7426667 163.248222,31.3926667 162.977556,30.954 C162.706889,30.5153333 162.515556,30.0206667 162.403556,29.47 C162.291556,28.9193333 162.235556,28.3546667 162.235556,27.776 C162.235556,27.1973333 162.291556,26.628 162.403556,26.068 C162.515556,25.508 162.706889,25.0133333 162.977556,24.584 C163.248222,24.1546667 163.607556,23.8046667 164.055556,23.534 C164.503556,23.2633333 165.063556,23.128 165.735556,23.128 C166.407556,23.128 166.972222,23.2633333 167.429556,23.534 C167.886889,23.8046667 168.250889,24.1546667 168.521556,24.584 C168.792222,25.0133333 168.983556,25.508 169.095556,26.068 C169.207556,26.628 169.263556,27.1973333 169.263556,27.776 C169.263556,28.3546667 169.207556,28.9193333 169.095556,29.47 C168.983556,30.0206667 168.792222,30.5153333 168.521556,30.954 C168.250889,31.3926667 167.886889,31.7426667 167.429556,32.004 C166.972222,32.2653333 166.407556,32.396 165.735556,32.396 Z M180.569333,40.068 L180.569333,33.208 L180.625333,33.208 C181.110667,33.9173333 181.731333,34.454 182.487333,34.818 C183.243333,35.182 184.069333,35.364 184.965333,35.364 C186.029333,35.364 186.958,35.1586667 187.751333,34.748 C188.544667,34.3373333 189.207333,33.7866667 189.739333,33.096 C190.271333,32.4053333 190.668,31.612 190.929333,30.716 C191.190667,29.82 191.321333,28.8866667 191.321333,27.916 C191.321333,26.8893333 191.190667,25.9046667 190.929333,24.962 C190.668,24.0193333 190.266667,23.1933333 189.725333,22.484 C189.184,21.7746667 188.502667,21.2053333 187.681333,20.776 C186.86,20.3466667 185.88,20.132 184.741333,20.132 C183.845333,20.132 183.024,20.3093333 182.277333,20.664 C181.530667,21.0186667 180.914667,21.588 180.429333,22.372 L180.373333,22.372 L180.373333,20.524 L176.593333,20.524 L176.593333,40.068 L180.569333,40.068 Z M183.901333,32.396 C183.266667,32.396 182.725333,32.2653333 182.277333,32.004 C181.829333,31.7426667 181.47,31.402 181.199333,30.982 C180.928667,30.562 180.732667,30.072 180.611333,29.512 C180.49,28.952 180.429333,28.3826667 180.429333,27.804 C180.429333,27.2066667 180.485333,26.628 180.597333,26.068 C180.709333,25.508 180.900667,25.0133333 181.171333,24.584 C181.442,24.1546667 181.796667,23.8046667 182.235333,23.534 C182.674,23.2633333 183.22,23.128 183.873333,23.128 C184.508,23.128 185.044667,23.2633333 185.483333,23.534 C185.922,23.8046667 186.281333,24.1593333 186.561333,24.598 C186.841333,25.0366667 187.042,25.536 187.163333,26.096 C187.284667,26.656 187.345333,27.2253333 187.345333,27.804 C187.345333,28.3826667 187.289333,28.952 187.177333,29.512 C187.065333,30.072 186.874,30.562 186.603333,30.982 C186.332667,31.402 185.978,31.7426667 185.539333,32.004 C185.100667,32.2653333 184.554667,32.396 183.901333,32.396 Z M198.567111,18.284 L198.567111,15.008 L194.591111,15.008 L194.591111,18.284 L198.567111,18.284 Z M198.567111,35 L198.567111,20.524 L194.591111,20.524 L194.591111,35 L198.567111,35 Z M207.324889,35 L207.324889,23.184 L210.068889,23.184 L210.068889,20.524 L207.324889,20.524 L207.324889,19.656 C207.324889,19.0586667 207.441556,18.634 207.674889,18.382 C207.908222,18.13 208.295556,18.004 208.836889,18.004 C209.340889,18.004 209.826222,18.032 210.292889,18.088 L210.292889,15.12 C209.956889,15.1013333 209.611556,15.078 209.256889,15.05 C208.902222,15.022 208.547556,15.008 208.192889,15.008 C206.568889,15.008 205.355556,15.4186667 204.552889,16.24 C203.750222,17.0613333 203.348889,18.116 203.348889,19.404 L203.348889,20.524 L200.968889,20.524 L200.968889,23.184 L203.348889,23.184 L203.348889,35 L207.324889,35 Z M214.738667,40.068 C216.101333,40.068 217.165333,39.816 217.930667,39.312 C218.696,38.808 219.293333,37.968 219.722667,36.792 L225.770667,20.524 L221.654667,20.524 L218.490667,30.436 L218.434667,30.436 L215.158667,20.524 L210.930667,20.524 L215.998667,34.104 C216.110667,34.384 216.166667,34.6826667 216.166667,35 C216.166667,35.4293333 216.040667,35.8213333 215.788667,36.176 C215.536667,36.5306667 215.149333,36.736 214.626667,36.792 C214.234667,36.8106667 213.842667,36.8013333 213.450667,36.764 C213.058667,36.7266667 212.676,36.6893333 212.302667,36.652 L212.302667,39.928 C212.713333,39.9653333 213.119333,39.998 213.520667,40.026 C213.922,40.054 214.328,40.068 214.738667,40.068 Z" id="shopify" fill="#008060"></path>
        </g>
    </g>
</svg>